<svg width="169" height="99" viewBox="0 0 169 99" fill="none" xmlns="http://www.w3.org/2000/svg">
<circle cx="49.5" cy="49.5" r="49.5" fill="#C4C4C4"/>
<path d="M45.72 75.38C41.76 75.38 38.62 75.04 36.3 74.36C33.98 73.68 32.26 72.72 31.14 71.48C30.02 70.28 29.28 68.86 28.92 67.22C28.6 65.54 28.44 63.74 28.44 61.82C28.44 58.62 28.52 54.96 28.68 50.84C28.88 46.72 29.12 42.3 29.4 37.58C29.72 32.82 30.06 27.9 30.42 22.82L41.34 23.9C40.94 26.98 40.58 30.14 40.26 33.38C39.98 36.58 39.74 39.7 39.54 42.74C39.34 45.78 39.18 48.54 39.06 51.02C38.94 53.5 38.84 55.58 38.76 57.26C38.72 58.9 38.7 59.96 38.7 60.44C38.7 61.84 38.86 62.9 39.18 63.62C39.5 64.3 40.14 64.76 41.1 65C42.06 65.24 43.46 65.36 45.3 65.36C47.62 65.36 50.24 65.22 53.16 64.94C56.08 64.62 59.04 64.16 62.04 63.56C65.04 62.96 67.78 62.24 70.26 61.4L72.6 71.72C69.88 72.4 66.94 73.02 63.78 73.58C60.66 74.14 57.54 74.58 54.42 74.9C51.3 75.22 48.4 75.38 45.72 75.38Z" fill="white"/>
<path d="M35 46C44 57 29 15 29 15L14 63L29 85.5L66 91L70 70H36.5C36.2375 70.3487 26 35 35 46Z" fill="#D6742E"/>
<path d="M61.984 45.624C61.984 45.24 62.08 44.624 62.272 43.776C62.288 43.648 62.344 43.336 62.44 42.84C62.536 42.344 62.608 41.864 62.656 41.4C62.704 40.936 62.728 40.504 62.728 40.104C62.728 39.944 62.648 39.792 62.488 39.648C62.344 39.488 62.104 39.272 61.768 39C61.448 38.776 61.2 38.584 61.024 38.424C60.864 38.248 60.784 38.08 60.784 37.92C60.784 37.568 60.928 37.176 61.216 36.744C61.52 36.296 61.888 35.912 62.32 35.592C62.768 35.272 63.176 35.112 63.544 35.112C63.912 35.112 64.328 35.256 64.792 35.544C65.256 35.832 65.656 36.168 65.992 36.552C66.328 36.936 66.496 37.256 66.496 37.512C66.496 39.768 66.048 42.232 65.152 44.904L65.608 45.144C65.944 44.632 66.248 44.096 66.52 43.536C66.808 42.976 67.056 42.472 67.264 42.024C67.472 41.56 67.608 41.264 67.672 41.136C68.088 40.208 68.408 39.544 68.632 39.144C68.872 38.744 69.096 38.544 69.304 38.544C69.528 38.544 69.824 38.672 70.192 38.928C70.576 39.168 70.912 39.448 71.2 39.768C71.504 40.072 71.656 40.304 71.656 40.464C71.656 42.08 71.608 43.424 71.512 44.496C72.984 43.232 74.104 41.424 74.872 39.072C74.152 38.672 73.184 38.32 71.968 38.016C71.776 37.552 71.68 37.12 71.68 36.72C71.68 36.048 71.912 35.496 72.376 35.064C72.856 34.616 73.496 34.4 74.296 34.416C75.432 34.832 76.336 35.424 77.008 36.192C77.68 36.944 78.016 37.752 78.016 38.616C78.016 39.704 77.68 41 77.008 42.504C76.352 44.008 75.512 45.304 74.488 46.392C73.464 47.464 72.448 48 71.44 48C71.088 48 70.736 47.8 70.384 47.4C70.032 46.984 69.744 46.448 69.52 45.792C69.296 45.12 69.184 44.408 69.184 43.656C69.184 43.144 69.224 42.712 69.304 42.36C68.728 43.848 68.064 45.16 67.312 46.296C66.576 47.432 65.88 48 65.224 48C64.984 48 64.6 47.848 64.072 47.544C63.544 47.24 63.064 46.896 62.632 46.512C62.2 46.128 61.984 45.832 61.984 45.624ZM82.4491 42.96C82.4011 44.208 82.2811 45.36 82.0891 46.416C81.8971 47.472 81.6331 48 81.2971 48C80.8971 48 80.4331 47.864 79.9051 47.592C79.3771 47.32 78.9211 47 78.5371 46.632C78.1691 46.248 77.9851 45.92 77.9851 45.648C77.9851 45.456 78.0491 45.128 78.1771 44.664C78.3051 44.184 78.4571 43.656 78.6331 43.08C79.2571 41.032 79.7451 39.2 80.0971 37.584C80.2891 36.688 80.4571 35.76 80.6011 34.8C80.8251 33.52 81.0171 32.536 81.1771 31.848C81.3371 31.16 81.5371 30.584 81.7771 30.12C82.0331 29.64 82.3451 29.4 82.7131 29.4C82.9851 29.4 83.3851 29.568 83.9131 29.904C84.4571 30.224 84.9371 30.6 85.3531 31.032C85.7691 31.448 85.9771 31.792 85.9771 32.064C85.9771 32.304 85.8891 32.576 85.7131 32.88C85.5531 33.168 85.2811 33.584 84.8971 34.128C84.8171 34.24 84.6651 34.464 84.4411 34.8C84.2331 35.136 84.0811 35.416 83.9851 35.64C83.7931 36.104 83.5771 36.696 83.3371 37.416C83.1131 38.136 82.9211 38.84 82.7611 39.528L83.1931 39.768C84.2331 38.36 85.1371 37.232 85.9051 36.384C86.6891 35.536 87.2971 35.112 87.7291 35.112C88.0331 35.112 88.4011 35.264 88.8331 35.568C89.2651 35.872 89.6411 36.224 89.9611 36.624C90.2811 37.008 90.4411 37.304 90.4411 37.512C90.4251 37.8 90.3291 38.216 90.1531 38.76C89.9931 39.288 89.7371 40.032 89.3851 40.992C88.9371 42.144 88.5371 43.272 88.1851 44.376C88.6811 44.184 89.0971 43.992 89.4331 43.8C89.7691 43.608 90.1611 43.344 90.6091 43.008C91.2811 43.296 91.7691 43.656 92.0731 44.088C92.3931 44.52 92.5371 45.048 92.5051 45.672C92.5051 46.056 92.2091 46.424 91.6171 46.776C91.0411 47.128 90.3691 47.424 89.6011 47.664C88.8491 47.888 88.2491 48 87.8011 48C87.4331 48 87.0091 47.856 86.5291 47.568C86.0491 47.28 85.6331 46.952 85.2811 46.584C84.9291 46.2 84.7611 45.904 84.7771 45.696C84.7771 45.568 84.8571 45.264 85.0171 44.784C85.1771 44.288 85.2811 43.952 85.3291 43.776C85.6331 42.816 85.8571 42.056 86.0011 41.496C86.1611 40.92 86.2411 40.496 86.2411 40.224C86.2411 40.032 86.2011 39.936 86.1211 39.936C85.7691 39.936 85.2411 40.24 84.5371 40.848C83.8331 41.456 83.1371 42.16 82.4491 42.96ZM104.394 44.472C105.37 43.992 106.194 43.48 106.866 42.936C107.57 43.176 108.09 43.512 108.426 43.944C108.778 44.36 108.954 44.84 108.954 45.384C108.954 45.768 108.682 46.168 108.138 46.584C107.594 46.984 106.946 47.32 106.194 47.592C105.442 47.864 104.802 48 104.274 48C103.906 48 103.482 47.864 103.002 47.592C102.538 47.32 102.13 47 101.778 46.632C101.442 46.264 101.274 45.976 101.274 45.768C101.274 45.608 101.338 45.392 101.466 45.12C101.61 44.848 101.762 44.568 101.922 44.28C102.082 43.992 102.186 43.8 102.234 43.704L101.634 43.368C100.786 44.76 99.9702 45.88 99.1862 46.728C98.4182 47.576 97.6582 48 96.9062 48C96.3942 48 95.8502 47.776 95.2742 47.328C94.7142 46.88 94.2342 46.336 93.8342 45.696C93.4502 45.056 93.2582 44.488 93.2582 43.992C93.2582 42.568 93.5542 41.112 94.1462 39.624C94.7382 38.136 95.5622 36.904 96.6182 35.928C97.6902 34.952 98.8982 34.464 100.242 34.464C100.722 34.464 101.21 34.68 101.706 35.112C102.202 35.544 102.522 35.984 102.666 36.432C102.746 36.08 102.858 35.776 103.002 35.52C103.162 35.248 103.33 35.112 103.506 35.112C103.922 35.112 104.378 35.264 104.874 35.568C105.386 35.856 105.818 36.2 106.17 36.6C106.522 36.984 106.698 37.288 106.698 37.512C106.682 37.816 106.554 38.32 106.314 39.024C106.09 39.728 105.722 40.8 105.21 42.24C104.906 43.024 104.634 43.768 104.394 44.472ZM97.0262 44.664C98.3222 43.864 99.4502 42.88 100.41 41.712C101.37 40.528 102.026 39.224 102.378 37.8C101.946 37.608 101.538 37.512 101.154 37.512C100.402 37.512 99.7302 37.848 99.1382 38.52C98.5462 39.192 98.0742 40.072 97.7222 41.16C97.3702 42.248 97.1382 43.416 97.0262 44.664ZM114.957 38.568C114.429 40.984 114.085 42.952 113.925 44.472C114.949 43.976 115.773 43.464 116.397 42.936C117.101 43.176 117.621 43.512 117.957 43.944C118.309 44.36 118.485 44.84 118.485 45.384C118.485 45.768 118.213 46.168 117.669 46.584C117.125 46.984 116.477 47.32 115.725 47.592C114.973 47.864 114.333 48 113.805 48C113.341 48 112.821 47.864 112.245 47.592C111.685 47.304 111.205 46.976 110.805 46.608C110.405 46.224 110.205 45.896 110.205 45.624C110.205 45.4 110.285 44.92 110.445 44.184C110.621 43.432 110.773 42.792 110.901 42.264C111.045 41.72 111.149 41.32 111.213 41.064L111.789 38.76L110.325 38.856C110.053 38.728 109.845 38.528 109.701 38.256C109.557 37.984 109.485 37.672 109.485 37.32C109.485 36.68 109.717 36.136 110.181 35.688C110.757 35.72 111.461 35.752 112.293 35.784C112.293 34.76 112.405 33.632 112.629 32.4C112.853 31.152 113.101 30.528 113.373 30.528C113.709 30.528 114.133 30.672 114.645 30.96C115.157 31.248 115.605 31.584 115.989 31.968C116.373 32.352 116.565 32.688 116.565 32.976C116.565 33.344 116.493 33.72 116.349 34.104C116.221 34.472 116.005 34.984 115.701 35.64C115.973 35.608 116.661 35.496 117.765 35.304L118.317 35.208C118.605 35.368 118.821 35.6 118.965 35.904C119.125 36.208 119.205 36.536 119.205 36.888C119.205 37.176 119.149 37.456 119.037 37.728C118.925 38 118.757 38.232 118.533 38.424L114.957 38.568ZM126.38 37.32C125.66 37.864 125.076 38.4 124.628 38.928C124.196 39.456 123.98 39.904 123.98 40.272C123.98 40.448 124.132 40.632 124.436 40.824C124.74 41 125.244 41.248 125.948 41.568C127.068 42.08 127.948 42.56 128.588 43.008C129.228 43.44 129.548 43.944 129.548 44.52C129.548 45.096 129.22 45.656 128.564 46.2C127.924 46.728 127.124 47.16 126.164 47.496C125.204 47.832 124.308 48 123.476 48C122.852 48 122.196 47.872 121.508 47.616C120.82 47.344 120.244 47.008 119.78 46.608C119.316 46.192 119.084 45.8 119.084 45.432C119.084 44.776 119.292 44.256 119.708 43.872C120.14 43.472 120.7 43.272 121.388 43.272C121.708 43.272 122.036 43.32 122.372 43.416C122.644 44.28 122.876 44.896 123.068 45.264C124.044 45.008 124.916 44.576 125.684 43.968C124.34 43.392 123.108 42.744 121.988 42.024C120.884 41.304 120.332 40.632 120.332 40.008C120.332 39.368 120.628 38.608 121.22 37.728C121.812 36.832 122.564 36.064 123.476 35.424C124.404 34.768 125.348 34.44 126.308 34.44C126.964 34.44 127.588 34.632 128.18 35.016C128.788 35.4 129.276 35.88 129.644 36.456C130.012 37.032 130.196 37.592 130.196 38.136C130.196 38.664 129.988 39.096 129.572 39.432C129.172 39.752 128.66 39.912 128.036 39.912C127.636 39.912 127.228 39.832 126.812 39.672C126.78 39.032 126.636 38.248 126.38 37.32ZM135.926 33.768C135.622 33.768 135.254 33.648 134.822 33.408C134.406 33.152 134.046 32.856 133.742 32.52C133.438 32.168 133.286 31.856 133.286 31.584C133.286 31.152 133.398 30.72 133.622 30.288C133.846 29.856 134.126 29.544 134.462 29.352C134.622 29.272 134.878 29.232 135.23 29.232C135.806 29.232 136.382 29.36 136.958 29.616C137.55 29.872 137.91 30.192 138.038 30.576C138.07 30.656 138.086 30.776 138.086 30.936C138.086 31.304 137.974 31.712 137.75 32.16C137.526 32.608 137.246 32.992 136.91 33.312C136.574 33.616 136.246 33.768 135.926 33.768ZM134.294 48C133.878 48 133.406 47.864 132.878 47.592C132.366 47.304 131.918 46.976 131.534 46.608C131.166 46.224 130.982 45.904 130.982 45.648C130.982 45.36 131.086 44.936 131.294 44.376C131.502 43.816 131.814 43.048 132.23 42.072C132.55 41.32 132.79 40.736 132.95 40.32C133.11 39.888 133.19 39.584 133.19 39.408C133.19 39.28 133.11 39.144 132.95 39C132.806 38.84 132.582 38.648 132.278 38.424C131.926 38.152 131.662 37.936 131.486 37.776C131.326 37.616 131.246 37.448 131.246 37.272C131.246 36.936 131.398 36.544 131.702 36.096C132.022 35.648 132.39 35.264 132.806 34.944C133.238 34.624 133.606 34.464 133.91 34.464C134.278 34.464 134.678 34.624 135.11 34.944C135.558 35.264 135.934 35.648 136.238 36.096C136.558 36.528 136.718 36.88 136.718 37.152C136.718 37.856 136.534 38.864 136.166 40.176C135.814 41.472 135.358 42.872 134.798 44.376C135.182 44.2 135.518 44.016 135.806 43.824C136.094 43.632 136.494 43.336 137.006 42.936C137.726 43.176 138.254 43.52 138.59 43.968C138.926 44.4 139.094 44.872 139.094 45.384C139.094 45.8 138.822 46.208 138.278 46.608C137.75 47.008 137.102 47.344 136.334 47.616C135.566 47.872 134.886 48 134.294 48ZM145.11 34.44C146.246 34.568 147.278 34.912 148.206 35.472C149.15 36.016 149.886 36.672 150.414 37.44C150.942 38.208 151.206 38.976 151.206 39.744C151.206 40.896 150.91 42.12 150.318 43.416C149.726 44.712 148.902 45.8 147.846 46.68C146.79 47.56 145.614 48 144.318 48C143.678 48 142.998 47.768 142.278 47.304C141.558 46.824 140.95 46.248 140.454 45.576C139.974 44.888 139.734 44.28 139.734 43.752C139.734 42.776 139.854 41.776 140.094 40.752C140.334 39.712 140.702 38.704 141.198 37.728C141.662 37.472 142.126 37.344 142.59 37.344C142.798 37.344 142.99 37.368 143.166 37.416C143.102 37.224 143.07 37 143.07 36.744C143.07 36.232 143.246 35.768 143.598 35.352C143.966 34.936 144.47 34.632 145.11 34.44ZM143.454 45.264C144.782 44.816 145.814 44.048 146.55 42.96C147.286 41.872 147.774 40.576 148.014 39.072C147.294 38.56 146.318 38.304 145.086 38.304C144.782 38.304 144.55 38.312 144.39 38.328C144.566 38.648 144.654 39.008 144.654 39.408C144.238 40.064 143.918 40.792 143.694 41.592C143.47 42.376 143.358 43.168 143.358 43.968C143.358 44.448 143.39 44.88 143.454 45.264Z" fill="black"/>
</svg>
